<?xml version="1.0" encoding="UTF-8"?>
<svg id="a" data-name="Layer 1" xmlns="http://www.w3.org/2000/svg" xmlns:xlink="http://www.w3.org/1999/xlink" viewBox="0 0 24 24">
  <defs>
    <linearGradient id="b" x1=".49" y1="12" x2="23.51" y2="12" gradientUnits="userSpaceOnUse">
      <stop offset="0" stop-color="#0578aa"/>
      <stop offset="1" stop-color="#74c593"/>
    </linearGradient>
    <linearGradient id="c" x1=".62" y1="12" x2="23.38" y2="12" xlink:href="#b"/>
    <linearGradient id="d" x1="2.34" y1="12" x2="21.66" y2="12" xlink:href="#b"/>
    <linearGradient id="e" x1="0" y1="12" x2="24" y2="12" xlink:href="#b"/>
    <linearGradient id="f" x1="2" y1="12" x2="22" y2="12" xlink:href="#b"/>
    <linearGradient id="g" x1=".83" y1="12" x2="23.17" y2="12" xlink:href="#b"/>
    <linearGradient id="h" x1=".33" y1="12" x2="23.67" y2="12" xlink:href="#b"/>
    <linearGradient id="i" x1="3" y1="12" x2="21" y2="12" xlink:href="#b"/>
    <linearGradient id="j" x1=".07" y1="12" x2="23.93" y2="12" xlink:href="#b"/>
    <linearGradient id="k" x1="1.46" y1="12" x2="22.54" y2="12" xlink:href="#b"/>
    <linearGradient id="l" x1="1.25" y1="12" x2="22.75" y2="12" xlink:href="#b"/>
    <linearGradient id="m" x1=".13" y1="12" x2="23.87" y2="12" xlink:href="#b"/>
    <linearGradient id="n" x1="3.3" y1="12" x2="20.7" y2="12" xlink:href="#b"/>
    <linearGradient id="o" x1=".23" y1="12" x2="23.77" y2="12" xlink:href="#b"/>
    <linearGradient id="p" x1="1" y1="12" x2="23" y2="12" xlink:href="#b"/>
    <linearGradient id="q" x1="1.76" y1="12" x2="22.24" y2="12" xlink:href="#b"/>
    <linearGradient id="r" x1=".02" y1="12" x2="23.98" y2="12" xlink:href="#b"/>
    <linearGradient id="s" x1="2.62" y1="12" x2="21.38" y2="12" xlink:href="#b"/>
    <linearGradient id="t" x1=".62" y1="12" x2="23.38" y2="12" xlink:href="#b"/>
    <linearGradient id="u" x1="2.34" y1="12" x2="21.66" y2="12" xlink:href="#b"/>
  </defs>
  <path d="M8.61,23.51l-.02-.03L.49,8.61,15.39.49l.02.03,8.1,14.88-14.91,8.12ZM.57,8.63l8.06,14.8,14.8-8.06L15.37.57.57,8.63Z" style="fill: url(#b); stroke-width: 0px;"/>
  <path d="M15.82,23.38L.62,15.82v-.03S8.18.62,8.18.62l15.2,7.55v.03s-7.55,15.17-7.55,15.17ZM.71,15.8l15.09,7.5,7.5-15.09L8.2.71.71,15.8Z" style="fill: url(#c); stroke-width: 0px;"/>
  <path d="M4.87,21.66v-.03S2.34,4.87,2.34,4.87l16.79-2.53v.03s2.53,16.75,2.53,16.75l-16.79,2.53ZM2.41,4.93l2.51,16.66,16.66-2.51-2.51-16.66L2.41,4.93Z" style="fill: url(#d); stroke-width: 0px;"/>
  <path d="M11.7,24l-.02-.02L0,11.7,12.3,0l.02.02,11.68,12.28-12.3,11.7ZM.09,11.7l11.61,12.21,12.21-11.61L12.3.09.09,11.7Z" style="fill: url(#e); stroke-width: 0px;"/>
  <path d="M18.64,22L2,18.64,5.36,2l16.64,3.36-3.36,16.64ZM2.07,18.59l16.52,3.34,3.34-16.52L5.41,2.07l-3.34,16.52Z" style="fill: url(#f); stroke-width: 0px;"/>
  <path d="M7.62,23.17v-.03S.83,7.62.83,7.62L16.38.83v.03s6.79,15.53,6.79,15.53l-15.56,6.79ZM.91,7.65l6.74,15.44,15.44-6.74L16.35.91.91,7.65Z" style="fill: url(#g); stroke-width: 0px;"/>
  <path d="M14.82,23.67l-.03-.02L.33,14.82,9.18.33l.03.02,14.46,8.83-8.85,14.49ZM.42,14.8l14.38,8.78,8.78-14.38L9.2.42.42,14.8Z" style="fill: url(#h); stroke-width: 0px;"/>
  <path d="M4.06,21L3,4.06l16.94-1.06,1.06,16.94-16.94,1.06ZM3.07,4.12l1.05,16.82,16.82-1.05-1.05-16.82L3.07,4.12Z" style="fill: url(#i); stroke-width: 0px;"/>
  <path d="M10.66,23.93l-.02-.02L.07,10.66l.02-.02L13.34.07l.02.02,10.57,13.25-.02.02-13.25,10.57ZM.16,10.67l10.51,13.17,13.17-10.51L13.33.16.16,10.67Z" style="fill: url(#j); stroke-width: 0px;"/>
  <path d="M17.74,22.54h-.03S1.46,17.74,1.46,17.74v-.03S6.26,1.46,6.26,1.46h.03s16.25,4.8,16.25,4.8v.03s-4.8,16.25-4.8,16.25ZM1.54,17.7l16.16,4.76,4.76-16.16L6.3,1.54,1.54,17.7Z" style="fill: url(#k); stroke-width: 0px;"/>
  <path d="M6.66,22.75v-.03S1.25,6.66,1.25,6.66h.03S17.34,1.25,17.34,1.25v.03s5.41,16.06,5.41,16.06h-.03s-16.06,5.41-16.06,5.41ZM1.33,6.7l5.37,15.97,15.97-5.37L17.3,1.33,1.33,6.7Z" style="fill: url(#l); stroke-width: 0px;"/>
  <path d="M13.79,23.87L.13,13.79,10.21.13l13.66,10.08-10.08,13.66ZM.22,13.78l13.56,10,10-13.56L10.22.22.22,13.78Z" style="fill: url(#m); stroke-width: 0px;"/>
  <path d="M20.27,20.7l-16.97-.42v-.03s.42-16.94.42-16.94l16.97.42v.03s-.42,16.94-.42,16.94ZM3.37,20.21l16.84.42.42-16.84-16.84-.42-.42,16.84Z" style="fill: url(#n); stroke-width: 0px;"/>
  <path d="M9.62,23.77L.23,9.62,14.38.23l9.39,14.14-14.14,9.39ZM.32,9.64l9.32,14.04,14.04-9.32L14.36.32.32,9.64Z" style="fill: url(#o); stroke-width: 0px;"/>
  <path d="M16.8,23h-.03S1,16.8,1,16.8L7.2,1h.03s15.77,6.2,15.77,6.2l-6.2,15.8ZM1.08,16.77l15.69,6.15,6.15-15.69L7.23,1.08,1.08,16.77Z" style="fill: url(#p); stroke-width: 0px;"/>
  <path d="M5.74,22.24v-.03S1.76,5.74,1.76,5.74L18.26,1.76v.03s3.98,16.47,3.98,16.47l-16.5,3.98ZM1.83,5.79l3.95,16.38,16.38-3.95L18.21,1.83,1.83,5.79Z" style="fill: url(#q); stroke-width: 0px;"/>
  <path d="M12.75,23.98l-.02-.02L.02,12.75l.02-.02L11.25.02l.02.02,12.71,11.21-.02.02-11.21,12.71ZM.11,12.74l12.63,11.15,11.15-12.63L11.26.11.11,12.74Z" style="fill: url(#r); stroke-width: 0px;"/>
  <path d="M19.48,21.38l-16.87-1.9v-.03S4.52,2.62,4.52,2.62l16.87,1.9v.03s-1.9,16.84-1.9,16.84ZM2.69,19.43l16.74,1.89,1.89-16.74L4.57,2.69l-1.89,16.74Z" style="fill: url(#s); stroke-width: 0px;"/>
  <path d="M8.61,23.51l-.02-.03L.49,8.61,15.39.49l.02.03,8.1,14.88-14.91,8.12ZM.57,8.63l8.06,14.8,14.8-8.06L15.37.57.57,8.63Z" style="fill: url(#b); stroke-width: 0px;"/>
  <path d="M15.82,23.38L.62,15.82v-.03S8.18.62,8.18.62l15.2,7.55v.03s-7.55,15.17-7.55,15.17ZM.71,15.8l15.09,7.5,7.5-15.09L8.2.71.71,15.8Z" style="fill: url(#t); stroke-width: 0px;"/>
  <path d="M4.87,21.66v-.03S2.34,4.87,2.34,4.87l16.79-2.53v.03s2.53,16.75,2.53,16.75l-16.79,2.53ZM2.41,4.93l2.51,16.66,16.66-2.51-2.51-16.66L2.41,4.93Z" style="fill: url(#u); stroke-width: 0px;"/>
</svg>