<?xml version="1.0" encoding="UTF-8"?>
<svg id="a" data-name="Layer 1" xmlns="http://www.w3.org/2000/svg" xmlns:xlink="http://www.w3.org/1999/xlink" viewBox="0 0 23.96 22.42">
  <defs>
    <linearGradient id="b" x1="4.89" y1="11.21" x2="19.07" y2="11.21" gradientUnits="userSpaceOnUse">
      <stop offset="0" stop-color="#0578aa"/>
      <stop offset="1" stop-color="#74c593"/>
    </linearGradient>
    <linearGradient id="c" x1="4.51" y1="11.21" x2="19.45" y2="11.21" xlink:href="#b"/>
    <linearGradient id="d" x1="4.04" y1="11.21" x2="19.91" y2="11.21" xlink:href="#b"/>
    <linearGradient id="e" x1="3.53" y1="11.21" x2="20.42" y2="11.21" xlink:href="#b"/>
    <linearGradient id="f" x1="3.01" y1="11.21" x2="20.94" y2="11.21" xlink:href="#b"/>
    <linearGradient id="g" x1="2.49" y1="11.21" x2="21.47" y2="11.21" xlink:href="#b"/>
    <linearGradient id="h" x1="1.98" y1="11.21" x2="21.98" y2="11.21" xlink:href="#b"/>
    <linearGradient id="i" x1="1.5" y1="11.21" x2="22.46" y2="11.21" xlink:href="#b"/>
    <linearGradient id="j" x1="1.07" y1="11.21" x2="22.88" y2="11.21" xlink:href="#b"/>
    <linearGradient id="k" x1=".71" y1="11.21" x2="23.25" y2="11.21" xlink:href="#b"/>
    <linearGradient id="l" x1=".41" y1="11.21" x2="23.54" y2="11.21" xlink:href="#b"/>
    <linearGradient id="m" x1=".19" y1="11.21" x2="23.76" y2="11.21" xlink:href="#b"/>
    <linearGradient id="n" x1=".05" y1="11.21" x2="23.9" y2="11.21" xlink:href="#b"/>
    <linearGradient id="o" x1="0" y1="11.21" x2="23.96" y2="11.21" xlink:href="#b"/>
    <linearGradient id="p" x1=".04" y1="11.21" x2="23.91" y2="11.21" xlink:href="#b"/>
    <linearGradient id="q" x1=".16" y1="11.21" x2="23.8" y2="11.21" xlink:href="#b"/>
    <linearGradient id="r" x1=".35" y1="11.21" x2="23.6" y2="11.21" xlink:href="#b"/>
    <linearGradient id="s" x1=".62" y1="11.21" x2="23.34" y2="11.21" xlink:href="#b"/>
    <linearGradient id="t" x1=".95" y1="11.21" x2="23.01" y2="11.21" xlink:href="#b"/>
    <linearGradient id="u" x1="1.32" y1="11.21" x2="22.64" y2="11.21" xlink:href="#b"/>
    <linearGradient id="v" x1="1.72" y1="11.21" x2="22.24" y2="11.21" xlink:href="#b"/>
  </defs>
  <path d="M15.47,22.1c-3.27,0-7.47-4.58-9.49-10.42-1.41-4.07-1.46-7.87-.12-9.91.57-.87,1.39-1.38,2.36-1.45,3.3-.26,7.68,4.41,9.76,10.41,1.41,4.07,1.46,7.87.12,9.91-.57.87-1.39,1.38-2.36,1.45-.09,0-.18.01-.27.01ZM8.48.38c-.09,0-.18,0-.26.01-.96.08-1.74.55-2.3,1.42-1.33,2.03-1.28,5.8.13,9.85,2.01,5.81,6.19,10.37,9.43,10.37.09,0,.18,0,.26-.01.96-.08,1.74-.55,2.3-1.42,1.33-2.03,1.28-5.8-.13-9.85C15.9,4.94,11.73.38,8.48.38Z" style="fill: url(#b); stroke-width: 0px;"/>
  <path d="M16.15,22.29c-3.1,0-7.35-4.16-9.85-9.8-1.86-4.2-2.32-8.37-1.18-10.64.45-.9,1.12-1.45,1.99-1.65,3.12-.7,7.85,3.66,10.54,9.72,1.86,4.2,2.32,8.37,1.18,10.64-.45.9-1.12,1.45-1.99,1.65-.22.05-.45.07-.69.07ZM7.81.2c-.23,0-.46.02-.68.07-.85.19-1.5.73-1.94,1.61-1.13,2.25-.67,6.4,1.19,10.58,2.48,5.61,6.71,9.76,9.78,9.76.23,0,.46-.02.68-.07.85-.19,1.5-.73,1.94-1.61,1.13-2.25.67-6.4-1.19-10.58C15.1,4.34,10.87.2,7.81.2Z" style="fill: url(#c); stroke-width: 0px;"/>
  <path d="M16.83,22.39c-2.95,0-7.22-3.74-10.11-9.1-2.33-4.31-3.24-8.72-2.32-11.24.33-.92.89-1.54,1.65-1.84,2.9-1.15,7.92,2.85,11.2,8.9,2.33,4.31,3.24,8.72,2.32,11.24-.33.92-.89,1.54-1.65,1.84v-.03s0,.03,0,.03c-.34.13-.7.2-1.09.2ZM7.14.09c-.38,0-.74.06-1.07.19-.74.29-1.28.9-1.61,1.8-.91,2.5,0,6.89,2.32,11.18,2.88,5.33,7.12,9.06,10.05,9.06.38,0,.74-.06,1.07-.19.74-.29,1.28-.9,1.61-1.8.91-2.5,0-6.89-2.32-11.18C14.3,3.82,10.06.09,7.14.09Z" style="fill: url(#d); stroke-width: 0px;"/>
  <path d="M17.47,22.42c-2.83,0-7.06-3.32-10.27-8.32C4.42,9.77,3.05,5.19,3.69,2.42c.22-.95.67-1.64,1.33-2.04,2.64-1.59,7.9,1.98,11.73,7.95,2.77,4.32,4.15,8.9,3.51,11.67-.22.95-.67,1.64-1.33,2.04-.42.26-.92.38-1.46.38ZM6.49.07c-.53,0-1.02.12-1.43.37-.65.39-1.08,1.06-1.3,2-.64,2.75.73,7.32,3.5,11.62,3.81,5.94,9.04,9.5,11.64,7.93l.02.03-.02-.03c.65-.39,1.08-1.06,1.3-2,.64-2.75-.73-7.32-3.5-11.62C13.5,3.37,9.3.07,6.49.07Z" style="fill: url(#e); stroke-width: 0px;"/>
  <path d="M18.06,22.36c-.15,0-.3,0-.45-.02-2.8-.3-6.67-3.23-9.85-7.47C3.39,9.06,1.74,2.7,4.07.68,4.64.18,5.41-.02,6.35.08c2.8.3,6.67,3.23,9.85,7.47,4.36,5.81,6.01,12.17,3.68,14.19-.48.42-1.09.62-1.83.62ZM5.9.12c-.72,0-1.32.2-1.78.61-2.3,2-.65,8.32,3.69,14.1,3.17,4.22,7.02,7.15,9.81,7.44.92.1,1.67-.1,2.23-.58l.02.03-.02-.03c2.3-2,.65-8.32-3.69-14.1C12.98,3.36,9.13.44,6.34.15c-.15-.02-.3-.02-.45-.02Z" style="fill: url(#f); stroke-width: 0px;"/>
  <path d="M18.58,22.23c-2.71,0-6.71-2.59-10.21-6.61C3.53,10.05,1.21,3.55,3.2,1.12c.49-.6,1.2-.92,2.12-.93,2.71-.04,6.74,2.55,10.27,6.61,4.84,5.56,7.16,12.07,5.18,14.5l-.03-.02.03.02c-.49.6-1.2.92-2.12.93-.02,0-.04,0-.07,0ZM5.38.25s-.04,0-.07,0c-.89.01-1.59.32-2.06.9-1.96,2.41.36,8.87,5.17,14.41,3.52,4.04,7.53,6.63,10.22,6.59.89-.01,1.59-.32,2.06-.9,1.96-2.41-.36-8.87-5.17-14.41C12.05,2.83,8.07.25,5.38.25Z" style="fill: url(#g); stroke-width: 0px;"/>
  <path d="M19.01,22.02c-2.6,0-6.42-2.17-9.96-5.69C3.78,11.08.8,4.52,2.41,1.69c.41-.72,1.07-1.14,1.97-1.27,2.59-.35,6.72,1.87,10.52,5.66,5.27,5.25,8.25,11.81,6.64,14.64-.41.72-1.07,1.14-1.97,1.27-.18.02-.37.04-.56.04ZM4.95.46c-.19,0-.37.01-.55.04-.88.12-1.53.53-1.92,1.23-1.59,2.8,1.38,9.33,6.63,14.55,3.53,3.51,7.33,5.67,9.91,5.67.19,0,.37-.01.55-.04.88-.12,1.53-.53,1.92-1.23,1.59-2.8-1.38-9.33-6.63-14.55C11.33,2.62,7.53.46,4.95.46Z" style="fill: url(#h); stroke-width: 0px;"/>
  <path d="M19.34,21.75c-2.48,0-6.08-1.77-9.56-4.76C4.14,12.14.53,5.59,1.73,2.4c.32-.84.94-1.39,1.84-1.62,2.44-.62,6.6,1.2,10.6,4.64,5.64,4.86,9.25,11.4,8.05,14.59-.32.84-.94,1.39-1.84,1.62-.32.08-.66.12-1.04.12ZM4.62.73c-.37,0-.71.04-1.02.12-.88.22-1.49.76-1.8,1.58-1.19,3.16,2.41,9.67,8.03,14.51,3.98,3.43,8.12,5.24,10.54,4.63.88-.22,1.49-.76,1.8-1.58h.03s-.03,0-.03,0c1.19-3.16-2.41-9.67-8.03-14.51C10.66,2.49,7.08.73,4.62.73Z" style="fill: url(#i); stroke-width: 0px;"/>
  <path d="M19.53,21.43c-.86,0-1.85-.18-2.95-.55-1.88-.63-3.96-1.76-6.02-3.29C4.6,13.2.39,6.76,1.17,3.24c.22-.99.79-1.66,1.71-2.01,1.11-.42,2.67-.32,4.5.3,1.88.63,3.96,1.76,6.02,3.29,5.95,4.4,10.17,10.84,9.39,14.36h0c-.22.99-.79,1.66-1.71,2.01-.45.17-.97.25-1.55.25ZM4.41,1.05c-.56,0-1.07.08-1.51.24-.9.34-1.46.99-1.67,1.96-.77,3.5,3.43,9.91,9.37,14.29,4.09,3.02,8.19,4.42,10.46,3.57.9-.34,1.46-.99,1.67-1.96.77-3.5-3.43-9.91-9.37-14.29C10.06,2.44,6.75,1.05,4.41,1.05Z" style="fill: url(#j); stroke-width: 0px;"/>
  <path d="M19.55,21.08c-2.19,0-5.12-1.03-8.18-2.94C5.17,14.27.4,8.01.72,4.2c.1-1.12.64-1.96,1.57-2.43,2.15-1.08,6.1-.11,10.3,2.51,6.2,3.87,10.97,10.12,10.65,13.94h-.03s.03,0,.03,0c-.1,1.12-.64,1.96-1.57,2.43-.58.29-1.3.43-2.11.43ZM4.4,1.4c-.8,0-1.51.14-2.08.43-.92.46-1.43,1.26-1.53,2.37-.32,3.79,4.44,10.02,10.61,13.88,3.05,1.91,5.97,2.93,8.15,2.93.8,0,1.51-.14,2.08-.43.92-.46,1.43-1.26,1.53-2.37.32-3.79-4.44-10.02-10.61-13.88-3.05-1.91-5.97-2.93-8.15-2.93Z" style="fill: url(#k); stroke-width: 0px;"/>
  <path d="M19.42,20.7c-1.99,0-4.53-.72-7.21-2.1C5.84,15.32.55,9.34.41,5.27c-.04-1.29.44-2.29,1.39-2.89,1.98-1.25,5.79-.7,9.94,1.44,6.37,3.28,11.66,9.26,11.79,13.34.04,1.29-.44,2.29-1.39,2.89-.7.44-1.64.66-2.73.66ZM4.54,1.78c-1.08,0-2,.21-2.7.65-.93.59-1.4,1.57-1.36,2.83.13,4.05,5.41,10,11.76,13.28,4.13,2.13,7.91,2.68,9.87,1.44.93-.59,1.4-1.57,1.36-2.83-.13-4.05-5.41-10-11.76-13.28-2.67-1.38-5.2-2.09-7.18-2.09Z" style="fill: url(#l); stroke-width: 0px;"/>
  <path d="M19.06,20.35c-1.71,0-3.77-.46-6-1.37C6.6,16.34.85,10.71.24,6.43c-.21-1.45.2-2.63,1.18-3.39,1.83-1.43,5.37-1.28,9.47.39,6.46,2.64,12.21,8.27,12.82,12.55h0c.21,1.45-.2,2.63-1.18,3.39-.84.65-2.03.98-3.47.98ZM4.9,2.13c-1.42,0-2.6.32-3.43.96C.51,3.84.11,4.99.31,6.42c.6,4.26,6.33,9.86,12.78,12.5,4.07,1.66,7.59,1.81,9.4.4.96-.75,1.36-1.9,1.15-3.32-.6-4.26-6.33-9.86-12.78-12.5-2.22-.91-4.27-1.36-5.97-1.36Z" style="fill: url(#m); stroke-width: 0px;"/>
  <path d="M18.49,20.02c-1.36,0-2.91-.25-4.56-.74C7.45,17.32,1.3,12.12.22,7.68c-.39-1.62-.08-2.98.92-3.92,1.66-1.57,4.98-1.8,8.9-.62,6.48,1.95,12.62,7.15,13.7,11.59.39,1.62.08,2.98-.92,3.92-.96.91-2.47,1.37-4.33,1.37ZM5.47,2.47c-1.84,0-3.34.45-4.28,1.35C.21,4.74-.1,6.07.29,7.67c1.08,4.42,7.2,9.6,13.66,11.54,3.89,1.17,7.19.95,8.83-.61.98-.92,1.29-2.26.9-3.85-1.07-4.42-7.2-9.6-13.66-11.54-1.65-.5-3.19-.74-4.55-.74Z" style="fill: url(#n); stroke-width: 0px;"/>
  <path d="M17.68,19.76c-.91,0-1.88-.1-2.9-.29C8.37,18.25,1.89,13.56.34,9.01-.27,7.23-.06,5.68.94,4.53c1.47-1.7,4.55-2.29,8.24-1.59,6.41,1.22,12.89,5.91,14.44,10.46.61,1.78.4,3.33-.6,4.48-1.07,1.23-2.97,1.88-5.34,1.88ZM6.28,2.72c-2.35,0-4.23.64-5.29,1.85C0,5.71-.19,7.23.41,8.99c1.54,4.53,8,9.2,14.38,10.41,3.66.7,6.72.11,8.18-1.56.98-1.13,1.18-2.65.58-4.41-1.54-4.53-8-9.2-14.38-10.41-1.02-.19-1.99-.29-2.89-.29Z" style="fill: url(#o); stroke-width: 0px;"/>
  <path d="M16.74,19.61c-.36,0-.74-.01-1.12-.04-6.26-.46-12.99-4.57-15.01-9.17-.83-1.89-.76-3.69.21-5.05,1.3-1.84,4.04-2.75,7.52-2.5,6.26.46,12.99,4.57,15.01,9.17.83,1.89.76,3.69-.21,5.05-1.16,1.64-3.46,2.54-6.4,2.54ZM7.21,2.88c-2.92,0-5.19.89-6.34,2.51-.96,1.36-1.03,3.08-.2,4.98,2,4.58,8.71,8.68,14.95,9.13,3.45.25,6.17-.65,7.46-2.47.96-1.36,1.03-3.08.2-4.98C21.28,7.47,14.57,3.37,8.33,2.92c-.38-.03-.76-.04-1.12-.04Z" style="fill: url(#p); stroke-width: 0px;"/>
  <path d="M15.63,19.58c-5.83,0-12.25-3.37-14.6-7.76C-.04,9.81-.13,7.82.78,6.21c1.1-1.96,3.56-3.18,6.75-3.35,6.03-.33,12.94,3.14,15.4,7.74,1.07,2.01,1.17,4,.26,5.61-1.1,1.96-3.56,3.18-6.75,3.35-.26.01-.53.02-.8.02ZM8.32,2.9c-.27,0-.53,0-.8.02-3.16.17-5.6,1.38-6.69,3.32C-.06,7.83.03,9.8,1.09,11.79c2.34,4.37,8.73,7.73,14.54,7.73.27,0,.53,0,.8-.02,3.16-.17,5.6-1.38,6.69-3.32.89-1.59.8-3.56-.26-5.54-2.34-4.37-8.73-7.73-14.54-7.73Z" style="fill: url(#q); stroke-width: 0px;"/>
  <path d="M14.55,19.7c-5.08,0-10.49-2.58-12.95-6.43C.28,11.19,0,9.01.8,7.13c.89-2.08,3.06-3.59,5.95-4.17,5.72-1.13,12.72,1.64,15.6,6.18,1.32,2.08,1.61,4.26.8,6.13-.89,2.08-3.06,3.59-5.95,4.17-.86.17-1.76.25-2.66.25ZM9.41,2.78c-.9,0-1.79.08-2.65.25C3.89,3.6,1.74,5.11.86,7.16c-.79,1.86-.51,4.01.8,6.07,2.87,4.51,9.84,7.27,15.53,6.15,2.87-.57,5.02-2.07,5.9-4.13.79-1.86.51-4.01-.8-6.07-2.44-3.83-7.83-6.4-12.89-6.4Z" style="fill: url(#r); stroke-width: 0px;"/>
  <path d="M13.58,19.96c-4.33,0-8.82-1.96-11.26-5.23C.75,12.63.25,10.29.89,8.14c.67-2.24,2.49-4,5.13-4.95,5.33-1.93,12.33.08,15.62,4.5,1.56,2.1,2.07,4.44,1.43,6.58-.67,2.24-2.49,4-5.13,4.95-1.37.5-2.86.73-4.36.73ZM10.38,2.52c-1.5,0-2.97.23-4.34.73-2.62.95-4.42,2.69-5.09,4.91-.64,2.13-.13,4.44,1.41,6.52,2.43,3.26,6.89,5.21,11.2,5.21,1.5,0,2.97-.23,4.34-.73,2.62-.95,4.42-2.69,5.09-4.91.64-2.13.13-4.44-1.41-6.52-2.43-3.26-6.89-5.21-11.2-5.21Z" style="fill: url(#s); stroke-width: 0px;"/>
  <path d="M12.79,20.36c-3.61,0-7.29-1.48-9.62-4.18-1.78-2.06-2.53-4.51-2.11-6.91.42-2.38,1.94-4.42,4.29-5.75,4.86-2.73,11.78-1.51,15.44,2.73h0c1.78,2.06,2.53,4.51,2.11,6.91-.42,2.38-1.94,4.42-4.29,5.75-1.75.99-3.78,1.46-5.82,1.46ZM11.17,2.13c-2.03,0-4.04.47-5.79,1.45-2.33,1.31-3.84,3.34-4.26,5.7-.42,2.38.33,4.81,2.09,6.86,3.64,4.21,10.52,5.43,15.35,2.71,2.33-1.31,3.84-3.34,4.26-5.7.42-2.38-.33-4.81-2.09-6.86-2.32-2.69-5.97-4.16-9.57-4.16Z" style="fill: url(#t); stroke-width: 0px;"/>
  <path d="M12.24,20.87c-2.96,0-5.93-1.11-8.1-3.28-1.95-1.96-2.95-4.47-2.82-7.07.13-2.55,1.35-4.88,3.42-6.57,4.32-3.52,11.07-3.12,15.06.88,1.95,1.96,2.95,4.47,2.82,7.07-.13,2.55-1.35,4.88-3.42,6.57-1.98,1.61-4.46,2.4-6.96,2.4ZM11.71,1.61c-2.48,0-4.96.79-6.92,2.39-2.06,1.68-3.26,3.99-3.39,6.52-.13,2.58.86,5.08,2.8,7.02,3.96,3.98,10.68,4.37,14.97.87,2.06-1.68,3.26-3.99,3.39-6.52.13-2.58-.86-5.08-2.8-7.02-2.15-2.16-5.11-3.26-8.05-3.26Z" style="fill: url(#u); stroke-width: 0px;"/>
  <path d="M11.97,21.47c-2.39,0-4.78-.82-6.72-2.51C.98,15.25.52,8.76,4.23,4.48,7.93.21,14.43-.25,18.7,3.46c4.27,3.71,4.73,10.2,1.03,14.48-2.03,2.34-4.89,3.53-7.76,3.53ZM11.98,1.02c-2.85,0-5.69,1.19-7.71,3.51-3.68,4.25-3.23,10.7,1.02,14.38,1.93,1.67,4.31,2.49,6.67,2.49,2.85,0,5.69-1.19,7.71-3.51,3.68-4.25,3.23-10.7-1.02-14.38-1.93-1.67-4.31-2.49-6.67-2.49Z" style="fill: url(#v); stroke-width: 0px;"/>
</svg>