<?xml version="1.0" encoding="UTF-8"?>
<svg id="a" data-name="Layer 1" xmlns="http://www.w3.org/2000/svg" xmlns:xlink="http://www.w3.org/1999/xlink" viewBox="0 0 24 24">
  <defs>
    <linearGradient id="b" x1="6.27" y1="12" x2="17.73" y2="12" gradientUnits="userSpaceOnUse">
      <stop offset="0" stop-color="#0578aa"/>
      <stop offset="1" stop-color="#74c593"/>
    </linearGradient>
    <linearGradient id="c" x1="6.13" y1="12" x2="17.87" y2="12" xlink:href="#b"/>
    <linearGradient id="d" x1="6.06" y1="12" x2="17.94" y2="12" xlink:href="#b"/>
    <linearGradient id="e" x1="6.03" y1="12" x2="17.97" y2="12" xlink:href="#b"/>
    <linearGradient id="f" x1="6.03" y1="12" x2="17.97" y2="12" xlink:href="#b"/>
    <linearGradient id="g" x1="6.02" y1="12" x2="17.98" y2="12" xlink:href="#b"/>
    <linearGradient id="h" x1="5.96" y1="12" x2="18.04" y2="12" xlink:href="#b"/>
    <linearGradient id="i" x1="5.8" y1="12" x2="18.2" y2="12" xlink:href="#b"/>
    <linearGradient id="j" x1="5.52" y1="12" x2="18.48" y2="12" xlink:href="#b"/>
    <linearGradient id="k" x1="5.1" y1="12" x2="18.9" y2="12" xlink:href="#b"/>
    <linearGradient id="l" x1="4.55" y1="12" x2="19.45" y2="12" xlink:href="#b"/>
    <linearGradient id="m" x1="3.91" y1="12" x2="20.09" y2="12" xlink:href="#b"/>
    <linearGradient id="n" x1="3.22" y1="12" x2="20.78" y2="12" xlink:href="#b"/>
    <linearGradient id="o" x1="2.51" y1="12" x2="21.49" y2="12" xlink:href="#b"/>
    <linearGradient id="p" x1="1.84" y1="12" x2="22.16" y2="12" xlink:href="#b"/>
    <linearGradient id="q" x1="1.25" y1="12" x2="22.75" y2="12" xlink:href="#b"/>
    <linearGradient id="r" x1=".76" y1="12" x2="23.24" y2="12" xlink:href="#b"/>
    <linearGradient id="s" x1=".4" y1="12" x2="23.6" y2="12" xlink:href="#b"/>
    <linearGradient id="t" x1=".16" y1="12" x2="23.84" y2="12" xlink:href="#b"/>
    <linearGradient id="u" x1=".03" y1="12" x2="23.97" y2="12" xlink:href="#b"/>
    <linearGradient id="v" x1="0" y1="12" x2="24" y2="12" xlink:href="#b"/>
  </defs>
  <path d="M13.04,16.82c-1.32,0-2.73-.39-3.97-1.19-1.51-.97-2.52-2.38-2.76-3.86-.18-1.1.08-2.12.75-2.94,1.61-2,5.13-2.2,7.85-.45,1.51.97,2.52,2.38,2.76,3.86.18,1.1-.08,2.12-.75,2.94-.88,1.09-2.32,1.64-3.89,1.64ZM10.96,7.22c-1.56,0-2.98.55-3.85,1.63-.66.82-.92,1.82-.74,2.91.24,1.47,1.23,2.86,2.74,3.83,2.7,1.74,6.2,1.54,7.79-.44.66-.82.92-1.82.74-2.91-.24-1.47-1.23-2.86-2.74-3.83-1.23-.79-2.63-1.18-3.94-1.18Z" style="fill: url(#b); stroke-width: 0px;"/>
  <path d="M12.61,17.06c-.92,0-1.87-.19-2.79-.59-1.62-.7-2.85-1.95-3.4-3.42-.43-1.16-.38-2.38.13-3.43,1.2-2.47,4.62-3.41,7.62-2.11,1.62.7,2.85,1.95,3.4,3.42.43,1.16.38,2.38-.13,3.43-.83,1.72-2.74,2.7-4.84,2.7ZM6.57,9.64h.02c-.51,1.05-.55,2.25-.13,3.4.54,1.46,1.77,2.69,3.37,3.39,2.98,1.29,6.37.36,7.56-2.09.51-1.04.55-2.24.13-3.39-.54-1.46-1.77-2.69-3.37-3.39-2.98-1.29-6.37-.36-7.56,2.09h-.02Z" style="fill: url(#c); stroke-width: 0px;"/>
  <path d="M12.25,17.41c-.5,0-1.02-.06-1.54-.18-1.64-.39-3.05-1.4-3.88-2.76-.73-1.19-.95-2.56-.63-3.86h.02s-.02,0-.02,0c.71-2.88,3.88-4.6,7.08-3.83,1.64.39,3.05,1.4,3.88,2.76.73,1.19.95,2.56.63,3.86-.59,2.42-2.92,4.02-5.55,4.02ZM11.75,6.64c-2.6,0-4.91,1.58-5.5,3.98-.32,1.28-.09,2.64.63,3.82.82,1.35,2.23,2.35,3.85,2.74,3.17.76,6.32-.94,7.03-3.8.32-1.28.09-2.64-.63-3.82-.82-1.35-2.23-2.35-3.85-2.74-.51-.12-1.02-.18-1.53-.18Z" style="fill: url(#d); stroke-width: 0px;"/>
  <path d="M12.04,17.85c-.1,0-.2,0-.3,0-3.29-.16-5.84-2.91-5.7-6.13.07-1.54.74-2.96,1.89-4.01,1.18-1.08,2.72-1.63,4.33-1.55,3.29.16,5.84,2.91,5.7,6.13-.07,1.54-.74,2.96-1.89,4.01-1.11,1.01-2.53,1.56-4.04,1.56ZM11.96,6.2c-1.49,0-2.9.54-4,1.54-1.14,1.04-1.8,2.45-1.87,3.97-.14,3.19,2.39,5.92,5.65,6.08,1.6.08,3.13-.47,4.3-1.54,1.14-1.04,1.8-2.45,1.87-3.97.14-3.19-2.39-5.92-5.65-6.08-.1,0-.2,0-.3,0Z" style="fill: url(#e); stroke-width: 0px;"/>
  <path d="M11.98,18.36c-1.21,0-2.39-.39-3.4-1.14-1.36-1.01-2.24-2.53-2.48-4.28-.47-3.47,1.79-6.7,5.05-7.22,1.51-.24,3.03.14,4.28,1.07,1.36,1.01,2.24,2.53,2.48,4.28.47,3.47-1.79,6.7-5.05,7.22-.29.05-.59.07-.88.07ZM12.02,5.69c-.29,0-.58.02-.87.07-3.23.51-5.47,3.72-5.01,7.16.24,1.74,1.11,3.25,2.46,4.25,1.24.92,2.75,1.3,4.24,1.06,3.23-.51,5.47-3.72,5.01-7.16-.24-1.74-1.11-3.25-2.46-4.25-1-.74-2.17-1.13-3.37-1.13Z" style="fill: url(#f); stroke-width: 0px;"/>
  <path d="M12.12,18.9c-.78,0-1.57-.18-2.31-.53-1.6-.76-2.85-2.27-3.43-4.15-1.12-3.6.48-7.52,3.58-8.75,1.37-.54,2.87-.48,4.23.17,1.6.76,2.85,2.27,3.43,4.15,1.12,3.6-.48,7.52-3.58,8.75-.62.25-1.27.37-1.92.37ZM11.88,5.16c-.64,0-1.28.12-1.9.36-3.07,1.21-4.66,5.11-3.55,8.68.58,1.86,1.82,3.36,3.4,4.11,1.34.64,2.83.7,4.19.16,3.07-1.21,4.66-5.11,3.55-8.68-.58-1.86-1.82-3.36-3.4-4.11-.73-.35-1.51-.53-2.29-.53Z" style="fill: url(#g); stroke-width: 0px;"/>
  <path d="M12.44,19.44c-.42,0-.84-.05-1.25-.16-1.76-.45-3.32-1.82-4.28-3.74-1.79-3.61-.96-8.12,1.84-10.07,1.21-.84,2.65-1.1,4.07-.73,1.76.45,3.32,1.82,4.28,3.74,1.79,3.61.96,8.12-1.84,10.07-.85.59-1.82.89-2.81.89ZM6.95,15.51c.95,1.91,2.5,3.27,4.24,3.72,1.4.36,2.83.1,4.02-.73,2.79-1.93,3.6-6.42,1.83-10-.95-1.91-2.5-3.27-4.24-3.72-1.4-.36-2.83-.1-4.02.73-2.79,1.93-3.6,6.42-1.83,10Z" style="fill: url(#h); stroke-width: 0px;"/>
  <path d="M12.9,19.94c-.09,0-.19,0-.28,0-1.83-.11-3.63-1.24-4.95-3.11-2.44-3.48-2.5-8.47-.11-11.13,1.02-1.14,2.38-1.71,3.83-1.63,1.83.11,3.63,1.24,4.95,3.11,2.44,3.48,2.5,8.47.11,11.13-.95,1.06-2.2,1.64-3.55,1.64ZM11.1,4.12c-1.33,0-2.56.57-3.5,1.62-2.37,2.64-2.31,7.6.12,11.05,1.3,1.85,3.09,2.98,4.9,3.09,1.43.08,2.77-.49,3.78-1.61,2.37-2.64,2.31-7.6-.12-11.05-1.3-1.85-3.09-2.98-4.9-3.09-.09,0-.18,0-.28,0Z" style="fill: url(#i); stroke-width: 0px;"/>
  <path d="M13.45,20.38c-1.63,0-3.34-.83-4.78-2.34-3.06-3.2-4.06-8.51-2.23-11.84.79-1.45,2.04-2.35,3.51-2.54,1.8-.24,3.76.6,5.39,2.3,3.06,3.2,4.06,8.51,2.23,11.84-.79,1.45-2.04,2.35-3.51,2.54-.2.03-.4.04-.6.04ZM10.55,3.68c-.2,0-.4.01-.6.04-1.45.19-2.68,1.08-3.46,2.51-1.82,3.31-.82,8.59,2.22,11.77,1.61,1.68,3.56,2.52,5.34,2.28,1.45-.19,2.68-1.08,3.46-2.51,1.82-3.31.82-8.59-2.22-11.77-1.43-1.5-3.13-2.32-4.74-2.32Z" style="fill: url(#j); stroke-width: 0px;"/>
  <path d="M14.06,20.74c-1.35,0-2.82-.55-4.18-1.6-3.62-2.78-5.61-8.24-4.45-12.17.52-1.77,1.62-3.01,3.1-3.49,1.69-.55,3.73-.04,5.59,1.39,3.62,2.78,5.61,8.24,4.45,12.17-.52,1.77-1.62,3.01-3.1,3.49-.45.15-.92.22-1.41.22ZM9.94,3.32c-.48,0-.95.07-1.39.21-1.46.47-2.54,1.7-3.06,3.44-1.15,3.91.83,9.34,4.43,12.1,1.84,1.42,3.86,1.92,5.53,1.38,1.46-.47,2.54-1.7,3.06-3.44,1.15-3.91-.83-9.34-4.43-12.1-1.36-1.04-2.81-1.59-4.15-1.59Z" style="fill: url(#k); stroke-width: 0px;"/>
  <path d="M14.66,21.01c-1.06,0-2.21-.32-3.38-.96-4.08-2.22-7.08-7.63-6.69-12.06.18-2.09,1.09-3.68,2.56-4.46,1.56-.84,3.54-.69,5.58.42,4.08,2.22,7.08,7.63,6.69,12.06-.18,2.09-1.09,3.68-2.56,4.46-.66.36-1.4.53-2.19.53ZM9.34,3.06c-.78,0-1.51.17-2.16.53-1.45.78-2.34,2.34-2.52,4.41-.39,4.41,2.6,9.79,6.66,12,2.02,1.1,3.98,1.25,5.51.42,1.45-.78,2.34-2.34,2.52-4.41.39-4.41-2.6-9.79-6.66-12-1.16-.63-2.3-.95-3.35-.95Z" style="fill: url(#l); stroke-width: 0px;"/>
  <path d="M15.22,21.17c-.75,0-1.55-.14-2.39-.43-4.43-1.52-8.41-6.67-8.87-11.48-.23-2.39.43-4.33,1.85-5.45,1.36-1.07,3.26-1.27,5.37-.55,4.43,1.52,8.41,6.67,8.87,11.48.23,2.39-.43,4.33-1.85,5.45-.82.65-1.84.97-2.98.97ZM8.79,2.9c-1.13,0-2.13.32-2.94.96-1.4,1.11-2.05,3.02-1.82,5.39.46,4.79,4.42,9.91,8.82,11.42,2.08.71,3.96.52,5.3-.54,1.4-1.11,2.05-3.02,1.82-5.39-.46-4.79-4.42-9.91-8.82-11.42-.83-.28-1.62-.42-2.37-.42Z" style="fill: url(#m); stroke-width: 0px;"/>
  <path d="M15.62,21.24c-.37,0-.75-.03-1.14-.09-4.64-.7-9.53-5.37-10.9-10.41-.71-2.6-.36-4.93.94-6.4,1.14-1.28,2.91-1.81,5-1.5,4.64.7,9.53,5.37,10.9,10.41.71,2.6.36,4.93-.94,6.4-.92,1.04-2.27,1.58-3.86,1.58ZM8.38,2.83c-1.57,0-2.89.54-3.8,1.56-1.29,1.45-1.63,3.76-.93,6.33,1.37,5.01,6.23,9.66,10.84,10.36,2.06.31,3.81-.21,4.93-1.47,1.29-1.45,1.63-3.76.93-6.33-1.37-5.01-6.23-9.66-10.84-10.36-.39-.06-.77-.09-1.13-.09Z" style="fill: url(#n); stroke-width: 0px;"/>
  <path d="M15.81,21.26c-4.61,0-10.07-3.89-12.32-8.85-1.24-2.74-1.3-5.38-.17-7.23.9-1.47,2.5-2.33,4.5-2.42,4.69-.21,10.38,3.75,12.69,8.85,1.24,2.74,1.31,5.38.17,7.23-.9,1.47-2.5,2.33-4.5,2.42-.12,0-.24,0-.36,0ZM16.18,21.17v.04s0-.04,0-.04c1.98-.09,3.55-.94,4.44-2.38,1.12-1.83,1.06-4.44-.17-7.16C18.14,6.56,12.48,2.61,7.82,2.83c-1.98.09-3.55.94-4.44,2.38-1.12,1.83-1.06,4.44.17,7.16,2.3,5.07,7.96,9.01,12.62,8.8Z" style="fill: url(#o); stroke-width: 0px;"/>
  <path d="M15.76,21.26c-4.25,0-9.27-2.84-12.03-7.07-1.8-2.76-2.34-5.62-1.48-7.87.64-1.67,1.99-2.82,3.89-3.32,4.56-1.2,10.91,1.85,14.14,6.81,1.8,2.76,2.34,5.62,1.48,7.87-.64,1.67-1.99,2.82-3.89,3.32-.67.18-1.38.26-2.11.26ZM8.25,2.82c-.73,0-1.43.08-2.1.26-1.87.49-3.2,1.63-3.83,3.27-.85,2.22-.32,5.06,1.47,7.8,3.22,4.93,9.53,7.97,14.06,6.77,1.87-.49,3.2-1.63,3.83-3.27.85-2.22.32-5.06-1.47-7.8-2.75-4.2-7.74-7.03-11.96-7.03Z" style="fill: url(#p); stroke-width: 0px;"/>
  <path d="M15.4,21.31c-3.79,0-8.15-1.94-11.11-5.25C1.96,13.44.89,10.45,1.36,7.85c.34-1.86,1.43-3.33,3.16-4.23,4.25-2.23,11.06-.29,15.19,4.33,2.33,2.61,3.4,5.6,2.93,8.2-.34,1.86-1.43,3.33-3.16,4.23l-.02-.04.02.04c-1.2.63-2.59.92-4.08.92ZM8.6,2.77c-1.47,0-2.86.29-4.04.92-1.71.89-2.78,2.34-3.12,4.18-.47,2.58.59,5.54,2.91,8.13,2.95,3.3,7.28,5.23,11.05,5.23,1.47,0,2.86-.29,4.04-.92,1.71-.89,2.78-2.34,3.12-4.18.47-2.58-.59-5.54-2.91-8.13-2.95-3.3-7.28-5.23-11.05-5.23Z" style="fill: url(#q); stroke-width: 0px;"/>
  <path d="M14.74,21.46c-3.2,0-6.72-1.21-9.54-3.54C2.42,15.62.8,12.66.76,9.79c-.03-2.06.77-3.85,2.29-5.18,3.75-3.26,10.81-2.6,15.74,1.47,2.78,2.3,4.4,5.26,4.44,8.13.03,2.06-.77,3.85-2.29,5.18-1.6,1.39-3.81,2.07-6.2,2.07ZM9.26,2.62c-2.37,0-4.56.67-6.15,2.05-1.51,1.31-2.29,3.08-2.26,5.12.04,2.84,1.64,5.78,4.41,8.07,4.9,4.04,11.91,4.7,15.63,1.47l.03.03-.03-.03c1.51-1.31,2.29-3.08,2.26-5.12-.04-2.84-1.64-5.78-4.41-8.07-2.81-2.32-6.31-3.52-9.48-3.52Z" style="fill: url(#r); stroke-width: 0px;"/>
  <path d="M13.88,21.79c-2.46,0-5.07-.67-7.43-2.07-3.11-1.84-5.25-4.6-5.88-7.59-.47-2.22-.03-4.41,1.23-6.16C4.87,1.72,11.92.96,17.54,4.28c3.11,1.84,5.25,4.6,5.88,7.59.47,2.22.03,4.41-1.23,6.16l-.04-.03.04.03c-1.78,2.47-4.9,3.76-8.31,3.76ZM10.11,2.3c-3.38,0-6.48,1.28-8.23,3.73-1.26,1.76-1.68,3.86-1.22,6.09.62,2.96,2.75,5.71,5.84,7.54,2.34,1.38,4.94,2.06,7.39,2.06,3.38,0,6.48-1.28,8.23-3.73,1.26-1.76,1.68-3.86,1.22-6.09-.62-2.96-2.75-5.71-5.84-7.54-2.34-1.38-4.94-2.06-7.39-2.06Z" style="fill: url(#s); stroke-width: 0px;"/>
  <path d="M13.03,22.33c-1.65,0-3.35-.3-5-.94-3.27-1.27-5.86-3.67-7.1-6.59C-.07,12.44-.1,9.91.84,7.68,3.03,2.51,9.82.23,15.97,2.61c3.27,1.27,5.86,3.67,7.1,6.59,1,2.36,1.03,4.89.09,7.12-1.6,3.78-5.66,6.02-10.12,6.02ZM10.97,1.76C6.53,1.76,2.51,3.97.93,7.72,0,9.93.03,12.43,1.01,14.76c1.23,2.9,3.8,5.28,7.05,6.54,6.11,2.36,12.84.11,15.01-5.02.93-2.21.9-4.71-.09-7.04-1.23-2.9-3.8-5.28-7.05-6.54-1.65-.64-3.34-.94-4.97-.94Z" style="fill: url(#t); stroke-width: 0px;"/>
  <path d="M12.38,23.08c-.82,0-1.65-.08-2.48-.24-3.15-.61-5.88-2.31-7.71-4.79C.36,15.57-.34,12.61.22,9.71,1.38,3.73,7.61-.1,14.11,1.16c6.49,1.26,10.83,7.15,9.67,13.13h-.05s.05,0,.05,0c-1.01,5.21-5.87,8.79-11.4,8.79ZM11.62,1.02C6.14,1.02,1.32,4.57.32,9.73c-.56,2.87.13,5.8,1.94,8.26,1.81,2.46,4.53,4.15,7.65,4.75.83.16,1.65.24,2.46.24,5.49,0,10.3-3.55,11.31-8.71,1.15-5.92-3.15-11.76-9.59-13.02-.83-.16-1.65-.24-2.46-.24Z" style="fill: url(#u); stroke-width: 0px;"/>
  <path d="M12,24C5.38,24,0,18.62,0,12S5.38,0,12,0s12,5.38,12,12-5.38,12-12,12ZM12,.1C5.44.1.1,5.44.1,12s5.34,11.9,11.9,11.9,11.9-5.34,11.9-11.9S18.56.1,12,.1Z" style="fill: url(#v); stroke-width: 0px;"/>
</svg>