<?xml version="1.0" encoding="UTF-8"?>
<svg id="a" data-name="Layer 1" xmlns="http://www.w3.org/2000/svg" xmlns:xlink="http://www.w3.org/1999/xlink" viewBox="0 0 23.99 23.99">
  <defs>
    <linearGradient id="b" x1="5.55" y1="12" x2="18.44" y2="12" gradientUnits="userSpaceOnUse">
      <stop offset="0" stop-color="#0578aa"/>
      <stop offset="1" stop-color="#74c593"/>
    </linearGradient>
    <linearGradient id="c" x1="5.11" y1="12" x2="18.88" y2="12" xlink:href="#b"/>
    <linearGradient id="d" x1="4.67" y1="12" x2="19.33" y2="12" xlink:href="#b"/>
    <linearGradient id="e" x1="4.22" y1="12" x2="19.77" y2="12" xlink:href="#b"/>
    <linearGradient id="f" x1="3.78" y1="12" x2="20.21" y2="12" xlink:href="#b"/>
    <linearGradient id="g" x1="3.36" y1="12" x2="20.64" y2="12" xlink:href="#b"/>
    <linearGradient id="h" x1="2.94" y1="12" x2="21.06" y2="12" xlink:href="#b"/>
    <linearGradient id="i" x1="2.53" y1="12" x2="21.46" y2="12" xlink:href="#b"/>
    <linearGradient id="j" x1="2.15" y1="12" x2="21.84" y2="12" xlink:href="#b"/>
    <linearGradient id="k" x1="1.79" y1="12" x2="22.2" y2="12" xlink:href="#b"/>
    <linearGradient id="l" x1="1.46" y1="12" x2="22.54" y2="12" xlink:href="#b"/>
    <linearGradient id="m" x1="1.15" y1="12" x2="22.84" y2="12" xlink:href="#b"/>
    <linearGradient id="n" x1=".88" y1="12" x2="23.11" y2="12" xlink:href="#b"/>
    <linearGradient id="o" x1=".65" y1="12" x2="23.35" y2="12" xlink:href="#b"/>
    <linearGradient id="p" x1=".45" y1="12" x2="23.54" y2="12" xlink:href="#b"/>
    <linearGradient id="q" x1=".29" y1="12" x2="23.71" y2="12" xlink:href="#b"/>
    <linearGradient id="r" x1=".17" y1="12" x2="23.83" y2="12" xlink:href="#b"/>
    <linearGradient id="s" x1=".08" y1="12" x2="23.91" y2="12" xlink:href="#b"/>
    <linearGradient id="t" x1=".03" y1="12" x2="23.96" y2="12" xlink:href="#b"/>
    <linearGradient id="u" x1="0" y1="12" x2="23.99" y2="12" xlink:href="#b"/>
    <linearGradient id="v" x1="0" y1="12" x2="23.99" y2="12" xlink:href="#b"/>
  </defs>
  <path d="M7.01,18.73c-.46,0-.82-.13-1.07-.39-.62-.63-.49-1.99.37-3.74,1.66-3.4,5.56-7.35,8.69-8.8,1.43-.66,2.52-.72,3.07-.15.62.63.49,1.99-.37,3.74-1.66,3.4-5.56,7.35-8.69,8.8-.78.36-1.45.54-2,.54ZM15,5.84v.03c-3.1,1.44-6.99,5.38-8.64,8.77-.84,1.71-.98,3.05-.38,3.66.53.54,1.59.48,2.99-.17,3.12-1.44,7-5.38,8.66-8.77.84-1.71.98-3.05.38-3.66-.53-.54-1.59-.48-2.99.17v-.03Z" style="fill: url(#b); stroke-width: 0px;"/>
  <path d="M6.68,18.82c-.54,0-.95-.15-1.22-.46-.63-.72-.4-2.2.64-4.07,1.95-3.53,6.18-7.43,9.42-8.7,1.43-.56,2.5-.54,3.02.06.63.72.4,2.2-.64,4.07-1.95,3.53-6.18,7.43-9.42,8.7-.69.27-1.3.41-1.8.41ZM17.31,5.24c-.49,0-1.09.13-1.77.4-3.23,1.27-7.44,5.16-9.39,8.67-1.02,1.84-1.25,3.3-.64,3.99.5.57,1.54.58,2.94.04,3.23-1.27,7.44-5.16,9.39-8.67,1.02-1.84,1.25-3.3.64-3.99-.26-.29-.65-.44-1.17-.44Z" style="fill: url(#c); stroke-width: 0px;"/>
  <path d="M6.38,18.89c-.63,0-1.11-.19-1.4-.55-.64-.82-.3-2.43.94-4.42,2.25-3.63,6.8-7.46,10.15-8.53,1.41-.45,2.46-.36,2.95.27.64.82.3,2.43-.94,4.42-2.25,3.63-6.8,7.46-10.15,8.53-.58.19-1.11.28-1.55.28ZM17.62,5.18c-.44,0-.95.09-1.53.28-3.33,1.07-7.86,4.88-10.11,8.5-1.22,1.96-1.56,3.54-.94,4.34.47.6,1.49.69,2.87.25,3.33-1.07,7.86-4.88,10.11-8.5,1.22-1.96,1.56-3.54.94-4.34-.27-.35-.73-.53-1.34-.53Z" style="fill: url(#d); stroke-width: 0px;"/>
  <path d="M6.1,18.94c-.74,0-1.28-.23-1.59-.67-.64-.93-.18-2.66,1.27-4.76,2.56-3.72,7.43-7.43,10.85-8.28,1.41-.35,2.4-.17,2.87.5.64.93.18,2.66-1.27,4.76-2.56,3.72-7.43,7.43-10.85,8.28-.47.12-.9.17-1.28.17ZM17.9,5.12c-.37,0-.79.06-1.26.17-3.41.84-8.26,4.54-10.81,8.25-1.43,2.08-1.89,3.78-1.27,4.68.45.65,1.41.81,2.79.47,3.41-.84,8.26-4.54,10.81-8.25,1.43-2.08,1.89-3.78,1.27-4.68-.3-.43-.82-.64-1.53-.64Z" style="fill: url(#e); stroke-width: 0px;"/>
  <path d="M5.87,18.97c-.89,0-1.52-.28-1.84-.82-.63-1.05-.04-2.91,1.63-5.11,2.87-3.79,8.05-7.34,11.53-7.93v.03s0-.03,0-.03c1.38-.23,2.34.02,2.77.73.63,1.05.04,2.91-1.63,5.11-2.87,3.79-8.05,7.34-11.53,7.93-.33.06-.64.08-.93.08ZM18.12,5.09c-.28,0-.58.03-.91.08-3.47.59-8.62,4.13-11.49,7.91-1.63,2.15-2.24,4.03-1.63,5.04.41.68,1.35.93,2.7.7,3.47-.59,8.62-4.13,11.49-7.91,1.63-2.15,2.24-4.03,1.63-5.04-.31-.52-.92-.78-1.78-.78Z" style="fill: url(#f); stroke-width: 0px;"/>
  <path d="M5.72,18.98c-1.07,0-1.81-.34-2.15-.99-.61-1.17.15-3.21,2.03-5.46,3.19-3.83,8.66-7.19,12.18-7.5,1.34-.12,2.26.22,2.66.97.61,1.17-.15,3.21-2.03,5.46-3.19,3.83-8.66,7.19-12.18,7.5-.17.02-.34.02-.5.02ZM17.78,5.07v.04c-3.5.31-8.95,3.66-12.13,7.47-1.86,2.23-2.62,4.24-2.02,5.38.38.73,1.27,1.05,2.59.93,3.51-.31,8.95-3.66,12.13-7.47,1.86-2.23,2.62-4.24,2.02-5.38-.38-.73-1.27-1.05-2.59-.93v-.04Z" style="fill: url(#g); stroke-width: 0px;"/>
  <path d="M5.64,18.99h0c-1.3,0-2.18-.42-2.53-1.22-.58-1.31.34-3.48,2.46-5.8,3.51-3.84,9.25-6.97,12.79-6.97h0c1.3,0,2.18.42,2.53,1.22.58,1.31-.34,3.48-2.46,5.8-3.51,3.84-9.25,6.97-12.79,6.97ZM18.36,5.08c-3.52,0-9.23,3.11-12.73,6.94-2.1,2.3-3.02,4.44-2.45,5.72.34.77,1.19,1.18,2.46,1.18h0c3.52,0,9.23-3.11,12.73-6.94,2.1-2.3,3.02-4.44,2.45-5.72-.34-.77-1.19-1.18-2.46-1.18h0Z" style="fill: url(#h); stroke-width: 0px;"/>
  <path d="M5.64,18.99c-.2,0-.4,0-.59-.03-1.26-.12-2.08-.63-2.38-1.48-.53-1.47.57-3.76,2.93-6.12,3.84-3.83,9.82-6.67,13.35-6.33,1.26.12,2.08.63,2.38,1.48.53,1.47-.57,3.76-2.93,6.12-3.63,3.62-9.18,6.36-12.76,6.36ZM18.35,5.08c-3.55,0-9.09,2.73-12.7,6.34-2.34,2.34-3.44,4.6-2.92,6.05.29.82,1.1,1.31,2.33,1.43,3.51.33,9.47-2.5,13.29-6.31,2.34-2.34,3.44-4.6,2.92-6.05-.29-.82-1.1-1.31-2.33-1.43-.19-.02-.38-.03-.59-.03Z" style="fill: url(#i); stroke-width: 0px;"/>
  <path d="M5.74,18.99c-.46,0-.88-.04-1.27-.12-1.21-.24-1.98-.85-2.23-1.75-.46-1.65.83-4.04,3.44-6.42,4.15-3.78,10.37-6.29,13.85-5.59,1.21.24,1.98.85,2.23,1.75.46,1.65-.83,4.04-3.44,6.42-3.69,3.35-8.99,5.71-12.58,5.71ZM18.25,5.07c-3.56,0-8.85,2.35-12.52,5.69-2.59,2.35-3.86,4.73-3.41,6.35.24.88.99,1.47,2.17,1.7.39.08.81.12,1.26.12,3.56,0,8.85-2.35,12.52-5.69,2.59-2.35,3.86-4.73,3.41-6.35-.24-.88-.99-1.47-2.17-1.7-.39-.08-.81-.12-1.26-.12Z" style="fill: url(#j); stroke-width: 0px;"/>
  <path d="M5.96,19.01c-.76,0-1.46-.09-2.06-.28-1.16-.37-1.87-1.08-2.05-2.05-.35-1.83,1.13-4.33,3.97-6.68,4.47-3.7,10.88-5.83,14.29-4.74,1.16.37,1.87,1.08,2.05,2.05.35,1.83-1.13,4.33-3.97,6.68-3.68,3.05-8.67,5.03-12.22,5.03ZM18.03,5.05c-3.53,0-8.51,1.97-12.17,5.01-2.82,2.34-4.3,4.81-3.95,6.61.18.94.88,1.63,2.01,1.99,3.39,1.08,9.77-1.04,14.22-4.73,2.82-2.34,4.3-4.81,3.95-6.61-.18-.94-.88-1.63-2.01-1.99-.6-.19-1.29-.28-2.05-.28Z" style="fill: url(#k); stroke-width: 0px;"/>
  <path d="M6.31,19.06c-1.14,0-2.15-.18-2.97-.55-1.1-.5-1.75-1.32-1.86-2.37-.22-2.02,1.47-4.59,4.53-6.89,4.77-3.58,11.35-5.28,14.65-3.78,1.1.5,1.75,1.32,1.86,2.37.22,2.02-1.47,4.59-4.53,6.89-3.6,2.7-8.21,4.33-11.68,4.33ZM17.68,5c-3.45,0-8.05,1.62-11.63,4.31-3.04,2.28-4.72,4.83-4.5,6.83.11,1.02.74,1.82,1.82,2.31,3.28,1.49,9.82-.2,14.58-3.77,3.04-2.28,4.72-4.83,4.5-6.83-.11-1.02-.74-1.82-1.82-2.31-.81-.37-1.82-.54-2.94-.54Z" style="fill: url(#l); stroke-width: 0px;"/>
  <path d="M6.79,19.16c-1.58,0-2.97-.3-3.99-.92-1.05-.65-1.62-1.59-1.65-2.73-.05-2.21,1.86-4.84,5.11-7.04,5.07-3.43,11.76-4.64,14.92-2.71,1.05.65,1.62,1.59,1.65,2.73.05,2.21-1.86,4.84-5.11,7.04-3.43,2.32-7.61,3.63-10.93,3.63ZM17.2,4.91c-3.3,0-7.47,1.3-10.89,3.62-3.23,2.19-5.13,4.79-5.08,6.98.02,1.11.58,2.04,1.62,2.67,3.14,1.92,9.8.71,14.85-2.71,3.23-2.19,5.13-4.79,5.08-6.98-.02-1.11-.58-2.04-1.62-2.67-1.01-.62-2.39-.91-3.96-.91Z" style="fill: url(#m); stroke-width: 0px;"/>
  <path d="M7.41,19.31c-2.09,0-3.91-.47-5.11-1.43-1-.81-1.49-1.89-1.4-3.14.16-2.38,2.29-5.04,5.7-7.1,5.35-3.23,12.13-3.91,15.11-1.52,1,.81,1.49,1.89,1.4,3.14-.16,2.38-2.29,5.04-5.7,7.1-3.19,1.93-6.89,2.95-9.99,2.95ZM16.59,4.75c-3.08,0-6.77,1.02-9.96,2.94C3.24,9.75,1.12,12.38.96,14.74c-.08,1.22.39,2.29,1.38,3.08,2.96,2.38,9.7,1.7,15.02-1.52,3.39-2.05,5.51-4.68,5.67-7.05.08-1.22-.39-2.29-1.38-3.08-1.19-.96-2.99-1.42-5.07-1.42Z" style="fill: url(#n); stroke-width: 0px;"/>
  <path d="M8.12,19.54c-2.66,0-4.96-.7-6.31-2.1-.95-.99-1.33-2.23-1.11-3.61.41-2.54,2.76-5.18,6.29-7.07,5.61-2.99,12.42-3.09,15.18-.21.95.99,1.33,2.23,1.11,3.61-.41,2.54-2.76,5.18-6.29,7.07-2.88,1.54-6.07,2.31-8.88,2.31ZM15.87,4.52c-2.79,0-5.97.77-8.85,2.3-3.51,1.87-5.85,4.5-6.25,7.02-.22,1.35.16,2.58,1.09,3.55,2.74,2.86,9.51,2.76,15.1-.23,3.51-1.87,5.85-4.5,6.25-7.02.22-1.35-.16-2.58-1.09-3.55-1.33-1.39-3.62-2.08-6.25-2.08Z" style="fill: url(#o); stroke-width: 0px;"/>
  <path d="M8.89,19.86c-3.26,0-6.09-1-7.51-2.93-.88-1.19-1.14-2.63-.76-4.14.68-2.66,3.24-5.25,6.85-6.92,5.85-2.71,12.65-2.17,15.14,1.21h0c.88,1.19,1.14,2.63.76,4.14-.68,2.66-3.24,5.25-6.85,6.92-2.51,1.16-5.19,1.73-7.63,1.73ZM15.1,4.2c-2.43,0-5.1.56-7.6,1.72C3.91,7.59,1.37,10.16.69,12.8c-.38,1.5-.12,2.91.75,4.08,2.48,3.35,9.23,3.88,15.06,1.19,3.59-1.66,6.13-4.23,6.81-6.87.38-1.5.12-2.91-.75-4.08-1.41-1.91-4.22-2.91-7.45-2.91Z" style="fill: url(#p); stroke-width: 0px;"/>
  <path d="M9.67,20.28c-3.86,0-7.24-1.41-8.68-3.96-.81-1.43-.92-3.08-.33-4.75.97-2.73,3.72-5.22,7.36-6.64,6.07-2.38,12.79-1.15,14.98,2.74.81,1.43.92,3.08.33,4.75-.97,2.73-3.72,5.22-7.36,6.64-2.1.82-4.27,1.21-6.31,1.21ZM14.33,3.78c-2.03,0-4.2.39-6.29,1.21-3.61,1.42-6.35,3.89-7.31,6.6-.59,1.65-.48,3.28.32,4.69,2.18,3.86,8.86,5.08,14.9,2.71,3.61-1.42,6.35-3.89,7.31-6.6.59-1.65.48-3.28-.32-4.69h0c-1.42-2.53-4.77-3.92-8.61-3.92Z" style="fill: url(#q); stroke-width: 0px;"/>
  <path d="M10.38,20.81c-4.46,0-8.37-1.92-9.73-5.17C-.06,13.92,0,12.04.86,10.21c1.27-2.75,4.18-5.08,7.79-6.24,6.25-2,12.84-.04,14.69,4.39.72,1.71.65,3.59-.2,5.43-1.27,2.75-4.18,5.08-7.79,6.24-1.66.53-3.35.78-4.96.78ZM13.61,3.25c-1.61,0-3.29.25-4.94.78-3.59,1.15-6.49,3.47-7.75,6.2C.08,12.06.01,13.91.72,15.61c1.34,3.22,5.23,5.13,9.66,5.13,1.61,0,3.29-.25,4.94-.78,3.59-1.15,6.49-3.47,7.75-6.2.84-1.82.91-3.68.2-5.37-1.34-3.22-5.23-5.13-9.66-5.13Z" style="fill: url(#r); stroke-width: 0px;"/>
  <path d="M11,21.45c-5.03,0-9.44-2.57-10.62-6.59-.6-2.04-.3-4.17.85-6.16,1.58-2.74,4.54-4.82,8.14-5.71,6.4-1.58,12.8,1.18,14.25,6.14.6,2.04.3,4.17-.85,6.16-1.58,2.74-4.54,4.82-8.14,5.71-1.22.3-2.45.45-3.64.45ZM13,2.62c-1.18,0-2.4.14-3.62.44-3.57.88-6.52,2.95-8.09,5.67C.15,10.71-.14,12.82.45,14.84c1.17,3.99,5.55,6.54,10.55,6.54,1.18,0,2.4-.14,3.62-.44,3.57-.88,6.52-2.95,8.09-5.67,1.14-1.98,1.43-4.09.84-6.11-1.17-3.99-5.55-6.54-10.55-6.54Z" style="fill: url(#s); stroke-width: 0px;"/>
  <path d="M11.48,22.19c-5.58,0-10.41-3.36-11.3-8.2-.44-2.37.14-4.83,1.61-6.94C3.63,4.43,6.68,2.59,10.16,2c6.52-1.1,12.65,2.49,13.66,8,.44,2.37-.14,4.83-1.61,6.94-1.84,2.63-4.89,4.47-8.37,5.06-.79.13-1.58.2-2.36.2ZM12.52,1.87c-.77,0-1.56.06-2.35.2-3.46.59-6.5,2.42-8.32,5.03C.38,9.19-.19,11.64.24,13.98c.89,4.81,5.69,8.14,11.23,8.14.77,0,1.56-.06,2.35-.2,3.46-.59,6.5-2.42,8.32-5.03,1.46-2.09,2.03-4.54,1.6-6.88h0c-.89-4.81-5.69-8.14-11.23-8.14Z" style="fill: url(#t); stroke-width: 0px;"/>
  <path d="M11.81,23.04c-6.1,0-11.27-4.29-11.77-10C-.48,6.98,4.44,1.58,11.03,1c3.19-.28,6.29.6,8.73,2.48,2.44,1.88,3.92,4.53,4.18,7.47.26,2.94-.74,5.81-2.82,8.08-2.08,2.27-4.98,3.68-8.17,3.96-.38.03-.77.05-1.14.05ZM12.19,1.02c-.38,0-.77.02-1.15.05C4.49,1.64-.41,7.01.12,13.04c.5,5.67,5.63,9.94,11.7,9.94.38,0,.76-.02,1.14-.05,3.17-.28,6.06-1.68,8.12-3.94,2.06-2.26,3.06-5.11,2.8-8.03-.26-2.92-1.73-5.55-4.15-7.42-2.13-1.64-4.77-2.52-7.53-2.52Z" style="fill: url(#u); stroke-width: 0px;"/>
  <path d="M12,23.99C5.38,23.99,0,18.61,0,12S5.38,0,12,0s12,5.38,12,12-5.38,12-12,12ZM12,.07C5.42.07.07,5.42.07,12s5.35,11.93,11.93,11.93,11.93-5.35,11.93-11.93S18.57.07,12,.07Z" style="fill: url(#v); stroke-width: 0px;"/>
</svg>